<svg width="39" height="39" viewBox="0 0 39 39" fill="none" xmlns="http://www.w3.org/2000/svg">
<path fill-rule="evenodd" clip-rule="evenodd" d="M19.5 3.9C15.3626 3.9 11.3947 5.54357 8.46913 8.46913C5.54357 11.3947 3.9 15.3626 3.9 19.5C3.9 21.5486 4.30351 23.5772 5.08748 25.4699C5.87145 27.3625 7.02054 29.0823 8.46913 30.5309C9.91773 31.9795 11.6375 33.1285 13.5301 33.9125C15.4228 34.6965 17.4514 35.1 19.5 35.1C21.5486 35.1 23.5772 34.6965 25.4699 33.9125C27.3625 33.1285 29.0823 31.9795 30.5309 30.5309C31.9795 29.0823 33.1286 27.3625 33.9125 25.4699C34.6965 23.5772 35.1 21.5486 35.1 19.5C35.1 15.3626 33.4564 11.3947 30.5309 8.46913C27.6053 5.54357 23.6374 3.9 19.5 3.9ZM5.71142 5.71142C9.36838 2.05446 14.3283 0 19.5 0C24.6717 0 29.6316 2.05446 33.2886 5.71142C36.9455 9.36838 39 14.3283 39 19.5C39 22.0608 38.4956 24.5965 37.5157 26.9623C36.5357 29.3282 35.0993 31.4778 33.2886 33.2886C31.4778 35.0993 29.3282 36.5357 26.9623 37.5157C24.5965 38.4956 22.0608 39 19.5 39C16.9392 39 14.4035 38.4956 12.0377 37.5157C9.67182 36.5357 7.52216 35.0993 5.71142 33.2886C3.90068 31.4778 2.46432 29.3282 1.48435 26.9623C0.504382 24.5965 0 22.0608 0 19.5C1.16229e-07 14.3283 2.05446 9.36838 5.71142 5.71142ZM11.7 11.7C11.7 10.623 12.573 9.75 13.65 9.75H25.35C26.427 9.75 27.3 10.623 27.3 11.7C27.3 12.777 26.427 13.65 25.35 13.65H22.355C22.5249 13.9442 22.6757 14.2498 22.8063 14.5651C22.9459 14.9023 23.0615 15.2481 23.1523 15.6H25.35C26.427 15.6 27.3 16.473 27.3 17.55C27.3 18.627 26.427 19.5 25.35 19.5H23.1523C23.0615 19.8519 22.9459 20.1977 22.8063 20.5349C22.4143 21.4813 21.8397 22.3411 21.1154 23.0654C20.3911 23.7897 19.5313 24.3643 18.5849 24.7563C18.3875 24.838 18.1872 24.9115 17.9844 24.9766L20.8789 27.8711C21.6404 28.6327 21.6404 29.8673 20.8789 30.6289C20.1173 31.3904 18.8827 31.3904 18.1211 30.6289L12.2711 24.7789C11.7134 24.2212 11.5466 23.3824 11.8484 22.6538C12.1503 21.9251 12.8613 21.45 13.65 21.45H15.6C16.1122 21.45 16.6193 21.3491 17.0925 21.1531C17.5656 20.9571 17.9956 20.6699 18.3577 20.3077C18.5992 20.0662 18.8074 19.7945 18.9775 19.5H13.65C12.573 19.5 11.7 18.627 11.7 17.55C11.7 16.473 12.573 15.6 13.65 15.6H18.9775C18.8074 15.3055 18.5992 15.0338 18.3577 14.7923C17.9956 14.4301 17.5656 14.1429 17.0925 13.9469C16.6193 13.7509 16.1122 13.65 15.6 13.65H13.65C12.573 13.65 11.7 12.777 11.7 11.7Z" fill="#17726E" style="fill:#17726E;fill:color(display-p3 0.0902 0.4471 0.4314);fill-opacity:1;"/>
</svg>
