<svg width="35" height="35" viewBox="0 0 35 35" fill="none" xmlns="http://www.w3.org/2000/svg">
<path fill-rule="evenodd" clip-rule="evenodd" d="M17.9162 0C27.3888 0.221077 35 7.97354 35 17.4997C35 27.1734 27.1807 35.0182 17.498 35C7.80703 34.9817 -0.106248 27.0175 0.00107902 17.3171C0.0448713 13.0748 1.62929 8.99309 4.45916 5.83238C4.95507 5.27849 5.80609 5.23151 6.35996 5.72744C6.91383 6.22338 6.96081 7.07443 6.46489 7.62832C4.0706 10.3025 2.7301 13.756 2.69316 17.3453C2.60224 25.5403 9.29923 32.2922 17.503 32.3076C25.69 32.323 32.3078 25.6914 32.3078 17.4997C32.3078 9.77455 26.3922 3.42798 18.8466 2.74783V8.74961C18.8466 9.49308 18.2439 10.0958 17.5005 10.0958C16.7571 10.0958 16.1544 9.49308 16.1544 8.74961V1.71466" fill="#17726E" style="fill:#17726E;fill:color(display-p3 0.0902 0.4471 0.4314);fill-opacity:1;"/>
<path d="M15.4895 19.2819L8.87259 9.82038C8.78105 9.68929 8.73858 9.53017 8.75264 9.37091C8.76669 9.21166 8.83636 9.06243 8.94945 8.94938C9.06253 8.83634 9.21181 8.76668 9.37112 8.75264C9.53042 8.73859 9.6896 8.78104 9.82073 8.87255L19.2854 15.4873C19.8659 15.9052 20.2585 16.5349 20.3783 17.24C20.498 17.9451 20.3352 18.669 19.9252 19.255C19.5152 19.8411 18.8908 20.2423 18.1872 20.3717C17.4836 20.5012 16.7573 20.3485 16.1654 19.9468C15.9037 19.7655 15.6751 19.5406 15.4895 19.2819Z" fill="#17726E" style="fill:#17726E;fill:color(display-p3 0.0902 0.4471 0.4314);fill-opacity:1;"/>
</svg>
