<svg width="30" height="42" viewBox="0 0 30 42" fill="none" xmlns="http://www.w3.org/2000/svg">
<path d="M15 0L19.3875 2.268L24.2718 3.00825L26.4853 7.41825L30 10.8832L29.1956 15.75L30 20.6168L26.4853 24.0817L24.2718 28.4918L19.3875 29.232L15 31.5L10.6125 29.232L5.72818 28.4918L3.51472 24.0817L0 20.6168L0.804416 15.75L0 10.8832L3.51472 7.41825L5.72818 3.00825L10.6125 2.268L15 0Z" fill="#17726E" style="fill:#17726E;fill:color(display-p3 0.0902 0.4471 0.4314);fill-opacity:1;"/>
<path d="M4.48475 30.9592V42L15 39.375L25.5152 42V30.9592L20.2103 31.7625L15 34.4558L9.7897 31.7625L4.48475 30.9592Z" fill="#17726E" style="fill:#17726E;fill:color(display-p3 0.0902 0.4471 0.4314);fill-opacity:1;"/>
</svg>
