<svg width="42" height="33" viewBox="0 0 42 33" fill="none" xmlns="http://www.w3.org/2000/svg">
<path d="M13.6501 22.6875C13.4932 22.6875 13.3364 22.7101 13.1868 22.7578C12.3363 23.0291 11.4418 23.2031 10.5001 23.2031C9.55836 23.2031 8.6639 23.0291 7.81274 22.7578C7.66312 22.7101 7.50693 22.6875 7.35009 22.6875C3.27741 22.6875 -0.0215502 25.9411 0.000106016 29.9462C0.00929349 31.6388 1.42613 33 3.1501 33H17.8501C19.574 33 20.9909 31.6388 21.0001 29.9462C21.0217 25.9411 17.7228 22.6875 13.6501 22.6875ZM10.5001 20.625C13.9795 20.625 16.8001 17.8548 16.8001 14.4375C16.8001 11.0202 13.9795 8.25 10.5001 8.25C7.02065 8.25 4.2001 11.0202 4.2001 14.4375C4.2001 17.8548 7.02065 20.625 10.5001 20.625ZM38.85 0H13.6501C11.913 0 10.5001 1.43408 10.5001 3.19623V6.1875C12.037 6.1875 13.4598 6.62449 14.7001 7.33477V4.125H37.8V22.6875H33.6V18.5625H25.2V22.6875H20.1968C21.4502 23.7632 22.3703 25.1838 22.8015 26.8125H38.85C40.5871 26.8125 42 25.3784 42 23.6163V3.19623C42 1.43408 40.5871 0 38.85 0Z" fill="#17726E" style="fill:#17726E;fill:color(display-p3 0.0902 0.4471 0.4314);fill-opacity:1;"/>
</svg>
