<svg width="28" height="25" viewBox="0 0 28 25" fill="none" xmlns="http://www.w3.org/2000/svg">
<path fill-rule="evenodd" clip-rule="evenodd" d="M0 1.25C0 0.559644 0.569819 0 1.27273 0H8.90909C10.5968 0 12.2154 0.65848 13.4089 1.83058C13.623 2.04093 13.8204 2.26473 14 2.49996C14.1796 2.26473 14.377 2.04093 14.5911 1.83058C15.7846 0.65848 17.4032 0 19.0909 0H26.7273C27.4302 0 28 0.559644 28 1.25V20C28 20.6904 27.4302 21.25 26.7273 21.25H17.8182C17.1431 21.25 16.4956 21.5134 16.0183 21.9822C15.5409 22.4511 15.2727 23.087 15.2727 23.75C15.2727 24.4404 14.7029 25 14 25C13.2971 25 12.7273 24.4404 12.7273 23.75C12.7273 23.087 12.4591 22.4511 11.9817 21.9822C11.5044 21.5134 10.8569 21.25 10.1818 21.25H1.27273C0.569819 21.25 0 20.6904 0 20V1.25ZM12.7273 19.4199C11.9599 18.9848 11.0832 18.75 10.1818 18.75H2.54545V2.5H8.90909C9.92174 2.5 10.8929 2.89509 11.609 3.59835C12.325 4.30161 12.7273 5.25544 12.7273 6.25V19.4199ZM15.2727 19.4199C16.0401 18.9848 16.9168 18.75 17.8182 18.75H25.4545V2.5H19.0909C18.0783 2.5 17.1071 2.89509 16.391 3.59835C15.675 4.30161 15.2727 5.25544 15.2727 6.25V19.4199Z" fill="#AE7739" style="fill:#AE7739;fill:color(display-p3 0.6824 0.4667 0.2235);fill-opacity:1;"/>
</svg>
