<svg width="42" height="25" viewBox="0 0 42 25" fill="none" xmlns="http://www.w3.org/2000/svg">
<path d="M34.0725 4.16016L30.9487 1.0612C30.2574 0.381394 29.3234 -7.54295e-06 28.35 1.11884e-10H13.4662C12.495 1.11884e-10 11.5566 0.384115 10.8675 1.0612L7.74375 4.16016H0V20.8073H4.2C5.355 20.8073 6.28687 19.8828 6.29344 18.7435H6.89062L12.4425 23.7174C14.4703 25.3516 17.2856 25.3906 19.3725 23.9648C20.1928 24.668 21.0787 25 22.0697 25C23.2641 25 24.3862 24.5182 25.2722 23.4375C26.7225 24.0039 28.4353 23.6068 29.4722 22.3438L31.1916 20.2409C31.5591 19.7917 31.7887 19.2773 31.9069 18.7435H35.7066C35.7131 19.8828 36.6516 20.8073 37.8 20.8073H42V4.16016H34.0725ZM3.15 18.724C2.5725 18.724 2.1 18.2552 2.1 17.6823C2.1 17.1094 2.5725 16.6406 3.15 16.6406C3.7275 16.6406 4.2 17.1094 4.2 17.6823C4.2 18.2617 3.7275 18.724 3.15 18.724ZM28.7437 18.2747L27.0309 20.3711C26.8472 20.5924 26.5191 20.6315 26.2894 20.4492L24.7209 19.1862L22.7522 21.5625C22.3584 22.0378 21.7678 21.875 21.5709 21.7188L19.1559 19.668L18.1322 20.918C17.22 22.0312 15.5597 22.2005 14.5031 21.3477L8.11781 15.6185H6.3V7.27865H9.04969L13.0988 3.26823C13.23 3.21615 13.3416 3.17057 13.4728 3.11849H17.1937L14.6541 5.42969C12.7247 7.18099 12.6131 10.1367 14.3653 12.0247C15.3366 13.0794 18.3816 14.707 21.0262 12.3112L21.5644 11.8229L28.665 17.5391C28.8881 17.7214 28.9209 18.0534 28.7437 18.2747ZM35.7 15.6185H31.1587C31.0078 15.4362 30.8372 15.2669 30.6534 15.1172L23.9137 9.6875L24.7341 8.94531C25.1606 8.55469 25.1934 7.89714 24.7997 7.47396L24.0844 6.71224C23.6906 6.28906 23.0278 6.26302 22.6012 6.64714L18.9788 9.94141C18.3553 10.5078 17.2922 10.5534 16.7081 9.94141C16.0978 9.29687 16.1503 8.30729 16.7869 7.73438L21.0919 3.82161C21.5775 3.37891 22.2075 3.13802 22.8637 3.13802L28.3566 3.125C28.4944 3.125 28.6256 3.17708 28.7175 3.27474L32.7666 7.28516H35.7V15.6185ZM38.85 18.724C38.2725 18.724 37.8 18.2552 37.8 17.6823C37.8 17.1094 38.2725 16.6406 38.85 16.6406C39.4275 16.6406 39.9 17.1094 39.9 17.6823C39.9 18.2617 39.4275 18.724 38.85 18.724Z" fill="#AE7739" style="fill:#AE7739;fill:color(display-p3 0.6824 0.4667 0.2235);fill-opacity:1;"/>
</svg>
