<svg width="24" height="25" viewBox="0 0 24 25" fill="none" xmlns="http://www.w3.org/2000/svg">
<path fill-rule="evenodd" clip-rule="evenodd" d="M9.0156 0.891735C10.8224 -0.297245 13.1764 -0.297245 14.9832 0.891735C15.9785 1.54668 16.7242 2.51039 17.1025 3.63051L17.2499 4.06715C17.711 5.43237 17.711 6.90836 17.2499 8.27358L17.1025 8.71022C16.7242 9.83034 15.9785 10.7941 14.9832 11.449C13.1764 12.638 10.8224 12.638 9.0156 11.449C8.02031 10.7941 7.27458 9.83034 6.89631 8.71022L6.74886 8.27358C6.28782 6.90836 6.28782 5.43237 6.74886 4.06715L6.89631 3.63051C7.27458 2.51039 8.02031 1.54668 9.0156 0.891735ZM13.8909 2.50899C12.7455 1.75527 11.2533 1.75527 10.1079 2.50899C9.47697 2.92418 9.00423 3.53509 8.76444 4.24516L8.61699 4.6818C8.29069 5.64804 8.29069 6.69269 8.61699 7.65893L8.76444 8.09557C9.00423 8.80564 9.47697 9.41656 10.1079 9.83174C11.2533 10.5855 12.7455 10.5855 13.8909 9.83174C14.5218 9.41656 14.9946 8.80564 15.2344 8.09557L15.3818 7.65893C15.7081 6.69269 15.7081 5.64804 15.3818 4.6818L15.2344 4.24516C14.9946 3.53509 14.5218 2.92418 13.8909 2.50899Z" fill="#AE7739" style="fill:#AE7739;fill:color(display-p3 0.6824 0.4667 0.2235);fill-opacity:1;"/>
<path fill-rule="evenodd" clip-rule="evenodd" d="M0.0354442 22.7085C1.08616 16.9581 6.71854 14.0667 11.9997 14.0667C17.2809 14.0667 22.9132 16.9582 23.9645 22.7085C24.0591 23.2257 23.9673 23.7795 23.6565 24.2275C23.3315 24.696 22.7957 25 22.1533 25H1.84612C1.20368 25 0.668151 24.6958 0.34336 24.2274C0.0327676 23.7795 -0.0590794 23.2258 0.0354442 22.7085ZM11.9997 15.8889C7.24268 15.8889 2.68687 18.4641 1.85223 23.032C1.84326 23.0811 1.84502 23.1222 1.85081 23.1521C1.85283 23.1625 1.85521 23.171 1.85751 23.1778H22.1425C22.1448 23.171 22.1472 23.1625 22.1492 23.152C22.155 23.1222 22.1568 23.0812 22.1478 23.0321C21.3126 18.464 16.7567 15.8889 11.9997 15.8889Z" fill="#AE7739" style="fill:#AE7739;fill:color(display-p3 0.6824 0.4667 0.2235);fill-opacity:1;"/>
</svg>
