<svg width="28" height="25" viewBox="0 0 28 25" fill="none" xmlns="http://www.w3.org/2000/svg">
<path d="M10.6054 20.71C10.462 20.4209 10.2122 20.3916 10.1111 20.3916C10.01 20.3916 9.7601 20.4204 9.62399 20.6938L9.25114 21.4429C8.94149 22.0669 8.03441 21.998 7.81809 21.3408L6.99997 18.8765L6.48421 20.4331C6.19789 21.2954 5.3963 21.875 4.49116 21.875H3.88887C3.45915 21.875 3.1111 21.5254 3.1111 21.0938C3.1111 20.6621 3.45915 20.3125 3.88887 20.3125H4.49116C4.72595 20.3125 4.93401 20.1621 5.00838 19.9385L5.89261 17.2705C6.05303 16.7915 6.49733 16.4692 6.99997 16.4692C7.50261 16.4692 7.94691 16.791 8.10684 17.2705L8.78156 19.3037C9.74162 18.5132 11.4095 18.8301 11.9899 19.9951C12.0818 20.1797 12.2568 20.2856 12.4449 20.3008V16.291L18.6671 10.0854V7.8125H12.0555C11.4138 7.8125 10.8888 7.28516 10.8888 6.64062V0H1.16666C0.520137 0 0 0.522461 0 1.17188V23.8281C0 24.4775 0.520137 25 1.16666 25H17.4999C18.1464 25 18.6666 24.4775 18.6666 23.8281V21.875L12.4444 21.8696C11.6608 21.8545 10.9579 21.4165 10.6054 20.71ZM18.6666 5.95215C18.6666 5.64453 18.5451 5.34668 18.3263 5.12695L13.5673 0.341797C13.3486 0.12207 13.052 0 12.7409 0H12.4444V6.25H18.6666V5.95215ZM13.9999 16.9414V20.3125H17.3536L25.213 12.3643L21.9133 9.0498L13.9999 16.9414ZM27.6372 8.17041L26.088 6.61426C25.6048 6.12891 24.8207 6.12891 24.3375 6.61426L23.0129 7.94482L26.3126 11.2593L27.6372 9.92871C28.1209 9.44336 28.1209 8.65576 27.6372 8.17041Z" fill="#AE7739" style="fill:#AE7739;fill:color(display-p3 0.6824 0.4667 0.2235);fill-opacity:1;"/>
</svg>
