<svg width="25" height="25" viewBox="0 0 25 25" fill="none" xmlns="http://www.w3.org/2000/svg">
<path d="M24.2885 11.1111L21.1538 3.7037H23.0769V1.85185H13.4615V0H11.5385V1.85185H1.92308V3.7037H3.84615L0.730769 11.1111H0V12.963H0.288462C0.588462 13.8852 1.19808 14.6852 2.01923 15.2407C2.83009 15.807 3.80608 16.1119 4.80769 16.1119C5.80931 16.1119 6.78529 15.807 7.59615 15.2407C8.418 14.6818 9.03151 13.8833 9.34615 12.963H9.61538V11.1111H8.75L5.53846 3.7037H11.5385V18.5185H7.69231L6.94231 18.8519L3.09615 23.5L3.84615 25H21.1538L21.9038 23.5L18.0577 18.8519L17.3077 18.5185H13.4615V3.7037H19.4808L16.2692 11.1111H15.3846V12.963H15.6731C15.9876 13.8804 16.5946 14.679 17.4077 15.2451C18.2208 15.8112 19.1986 16.1159 20.2019 16.1159C21.2053 16.1159 22.183 15.8112 22.9961 15.2451C23.8093 14.679 24.4162 13.8804 24.7308 12.963H25V11.1111H24.2885ZM6.19231 13.9074C5.7682 14.1334 5.29239 14.2543 4.80769 14.2593C4.32874 14.2568 3.8585 14.1357 3.44231 13.9074C3.0179 13.6834 2.66034 13.3582 2.40385 12.963H7.21154C6.95721 13.3534 6.60722 13.6777 6.19231 13.9074ZM6.67308 11.1111H2.82692L4.75 6.66667L6.67308 11.1111ZM16.8462 20.3704L19.2308 23.1481H5.76923L8.15385 20.3704H16.8462ZM20.2692 6.7037L22.1923 11.1481H18.3462L20.2692 6.7037ZM21.5769 13.9444C21.1565 14.1791 20.6782 14.3006 20.1923 14.2963C19.7121 14.3029 19.2395 14.1811 18.8269 13.9444C18.4019 13.7049 18.0451 13.3677 17.7885 12.963H22.5962C22.3578 13.375 22.0048 13.7149 21.5769 13.9444Z" fill="#AE7739" style="fill:#AE7739;fill:color(display-p3 0.6824 0.4667 0.2235);fill-opacity:1;"/>
</svg>
