<svg width="499" height="983" viewBox="0 0 499 983" fill="none" xmlns="http://www.w3.org/2000/svg">
<path d="M994.606 5.2819C997.483 3.67327 1000.23 2.13856 1002.82 0.655577L1036.03 94.0613C1032.78 95.9496 1029.22 97.9424 1025.38 100.089C1006.98 110.369 982.281 124.176 956.224 146.909C923.214 175.706 887.948 218.832 859.329 287.621C853.899 300.673 842.529 310.974 826.264 320.154C809.994 329.337 789.335 337.12 765.948 345.406C761.872 346.85 757.716 348.308 753.493 349.789C709.495 365.226 658.135 383.244 612.015 415.236C562.095 449.863 550.783 489.163 540.947 523.337L540.168 526.04C535.141 543.455 530.345 559.035 520.959 572.353C511.686 585.511 497.726 596.717 473.893 604.752C437.896 616.887 363.312 636.872 295.654 575.957C279.967 561.833 258.627 563.648 235.997 573.915C213.263 584.229 187.895 603.593 162.528 627.077C113.741 672.241 64.0427 733.509 31.6763 778.185L0.446249 685.545C32.4933 640.785 83.6255 577.236 133.591 530.981C158.752 507.689 183.37 489.016 204.929 479.235C226.591 469.407 243.852 469.068 255.923 479.936C327.053 543.977 405.598 522.664 442.075 510.367C467.292 501.866 478.319 494.205 493.127 474.995C505.711 458.667 508.494 443.575 513.483 426.291C513.722 425.466 513.96 424.638 514.199 423.809L514.227 423.71C523.989 389.805 534.632 352.841 582.202 319.843C627.383 288.503 677.735 270.83 721.845 255.347C726.038 253.875 730.175 252.423 734.246 250.981C757.576 242.716 778.864 234.727 795.824 225.155C812.788 215.581 825.929 204.148 832.344 188.727C860.492 121.068 895.033 78.9559 927.11 50.9708C952.466 28.8504 976.233 15.5577 994.606 5.2819Z" fill="#DF9C49" style="fill:#DF9C49;fill:color(display-p3 0.8745 0.6118 0.2863);fill-opacity:1;"/>
<path d="M1028.98 107.251C1032.44 105.317 1035.7 103.491 1038.75 101.732L1071.95 195.122C1068.3 197.277 1064.22 199.562 1059.76 202.054L1059.75 202.058C1041.36 212.338 1016.66 226.145 990.598 248.877C957.589 277.675 922.323 320.801 893.704 389.59C888.274 402.642 876.904 412.943 860.639 422.123C844.369 431.305 823.71 439.089 800.323 447.375C796.246 448.819 792.091 450.277 787.868 451.758C743.87 467.194 692.509 485.214 646.39 517.205C596.47 551.832 585.158 591.132 575.322 625.305C575.169 625.837 575.016 626.368 574.864 626.897C574.757 627.268 574.65 627.639 574.543 628.009C569.516 645.424 564.719 661.004 555.334 674.322C546.061 687.479 532.101 698.686 508.268 706.72C472.27 718.855 397.687 738.841 330.028 677.925C314.342 663.802 293.002 665.617 270.372 675.884C247.638 686.198 222.27 705.562 196.903 729.046C148.116 774.21 98.4176 835.477 66.0511 880.154L34.8211 787.514C66.8681 742.754 118 679.205 167.966 632.95C193.127 609.658 217.745 590.985 239.304 581.204C260.966 571.376 278.227 571.037 290.298 581.905C361.428 645.946 439.973 624.633 476.45 612.336C501.667 603.835 517.12 591.694 527.501 576.964C537.77 562.393 542.869 545.543 547.858 528.26C548.106 527.402 548.354 526.542 548.602 525.679C558.364 491.773 569.007 454.81 616.577 421.812C661.758 390.472 712.111 372.798 756.22 357.316C760.413 355.844 764.55 354.392 768.621 352.95C791.951 344.685 813.239 336.696 830.198 327.124C847.163 317.55 860.304 306.117 866.719 290.696C894.867 223.037 929.407 180.925 961.485 152.94C986.841 130.819 1010.61 117.527 1028.98 107.251Z" fill="white" style="fill:white;fill-opacity:1;"/>
<path d="M1063.36 209.22C1067.41 206.954 1071.19 204.836 1074.68 202.801L1107.87 296.171L1107.22 296.557C1103.36 298.868 1098.96 301.323 1094.13 304.022L1094.12 304.027C1075.73 314.307 1051.03 328.114 1024.97 350.846C991.964 379.644 956.697 422.77 928.079 491.559C922.649 504.611 911.279 514.912 895.014 524.092C878.744 533.274 858.085 541.058 834.698 549.344C830.621 550.788 826.465 552.246 822.242 553.727C778.244 569.164 726.884 587.182 680.765 619.174C630.845 653.801 619.533 693.101 609.697 727.274L609.614 727.562C609.381 728.37 609.15 729.176 608.918 729.978C603.891 747.393 599.094 762.973 589.709 776.291C580.436 789.448 566.476 800.655 542.643 808.689C506.645 820.824 432.062 840.81 364.403 779.894C348.717 765.771 327.377 767.586 304.747 777.853C282.013 788.167 256.645 807.531 231.278 831.015C182.491 876.179 132.792 937.446 100.426 982.123L69.1959 889.483C101.243 844.723 152.375 781.174 202.341 734.919C227.501 711.627 252.119 692.954 273.679 683.173C295.341 673.345 312.602 673.005 324.673 683.874C395.803 747.915 474.348 726.601 510.825 714.305C536.042 705.804 551.495 693.663 561.876 678.932C572.145 664.362 577.244 647.512 582.233 630.229C582.481 629.371 582.728 628.511 582.977 627.648C592.739 593.742 603.382 556.779 650.952 523.781C696.133 492.441 746.486 474.767 790.596 459.285C794.789 457.813 798.925 456.361 802.995 454.919C826.326 446.654 847.614 438.665 864.573 429.093C881.537 419.519 894.678 408.085 901.094 392.664C929.242 325.006 963.782 282.894 995.86 254.909C1021.22 232.788 1044.98 219.496 1063.36 209.22Z" fill="#015500" style="fill:#015500;fill:color(display-p3 0.0056 0.3339 0.0000);fill-opacity:1;"/>
<path d="M994.606 5.2819C997.483 3.67327 1000.23 2.13856 1002.82 0.655577L1036.03 94.0613C1032.78 95.9496 1029.22 97.9424 1025.38 100.089C1006.98 110.369 982.281 124.176 956.224 146.909C923.214 175.706 887.948 218.832 859.329 287.621C853.899 300.673 842.529 310.974 826.264 320.154C809.994 329.337 789.335 337.12 765.948 345.406C761.872 346.85 757.716 348.308 753.493 349.789C709.495 365.226 658.135 383.244 612.015 415.236C562.095 449.863 550.783 489.163 540.947 523.337L540.168 526.04C535.141 543.455 530.345 559.035 520.959 572.353C511.686 585.511 497.726 596.717 473.893 604.752C437.896 616.887 363.312 636.872 295.654 575.957C279.967 561.833 258.627 563.648 235.997 573.915C213.263 584.229 187.895 603.593 162.528 627.077C113.741 672.241 64.0427 733.509 31.6763 778.185L0.446249 685.545C32.4933 640.785 83.6255 577.236 133.591 530.981C158.752 507.689 183.37 489.016 204.929 479.235C226.591 469.407 243.852 469.068 255.923 479.936C327.053 543.977 405.598 522.664 442.075 510.367C467.292 501.866 478.319 494.205 493.127 474.995C505.711 458.667 508.494 443.575 513.483 426.291C513.722 425.466 513.96 424.638 514.199 423.809L514.227 423.71C523.989 389.805 534.632 352.841 582.202 319.843C627.383 288.503 677.735 270.83 721.845 255.347C726.038 253.875 730.175 252.423 734.246 250.981C757.576 242.716 778.864 234.727 795.824 225.155C812.788 215.581 825.929 204.148 832.344 188.727C860.492 121.068 895.033 78.9559 927.11 50.9708C952.466 28.8504 976.233 15.5577 994.606 5.2819Z" fill="url(#paint0_linear_117_81)" style=""/>
<path d="M1028.98 107.251C1032.44 105.317 1035.7 103.491 1038.75 101.732L1071.95 195.122C1068.3 197.277 1064.22 199.562 1059.76 202.054L1059.75 202.058C1041.36 212.338 1016.66 226.145 990.598 248.877C957.589 277.675 922.323 320.801 893.704 389.59C888.274 402.642 876.904 412.943 860.639 422.123C844.369 431.305 823.71 439.089 800.323 447.375C796.246 448.819 792.091 450.277 787.868 451.758C743.87 467.194 692.509 485.214 646.39 517.205C596.47 551.832 585.158 591.132 575.322 625.305C575.169 625.837 575.016 626.368 574.864 626.897C574.757 627.268 574.65 627.639 574.543 628.009C569.516 645.424 564.719 661.004 555.334 674.322C546.061 687.479 532.101 698.686 508.268 706.72C472.27 718.855 397.687 738.841 330.028 677.925C314.342 663.802 293.002 665.617 270.372 675.884C247.638 686.198 222.27 705.562 196.903 729.046C148.116 774.21 98.4176 835.477 66.0511 880.154L34.8211 787.514C66.8681 742.754 118 679.205 167.966 632.95C193.127 609.658 217.745 590.985 239.304 581.204C260.966 571.376 278.227 571.037 290.298 581.905C361.428 645.946 439.973 624.633 476.45 612.336C501.667 603.835 517.12 591.694 527.501 576.964C537.77 562.393 542.869 545.543 547.858 528.26C548.106 527.402 548.354 526.542 548.602 525.679C558.364 491.773 569.007 454.81 616.577 421.812C661.758 390.472 712.111 372.798 756.22 357.316C760.413 355.844 764.55 354.392 768.621 352.95C791.951 344.685 813.239 336.696 830.198 327.124C847.163 317.55 860.304 306.117 866.719 290.696C894.867 223.037 929.407 180.925 961.485 152.94C986.841 130.819 1010.61 117.527 1028.98 107.251Z" fill="url(#paint1_linear_117_81)" style=""/>
<path d="M1063.36 209.22C1067.41 206.954 1071.19 204.836 1074.68 202.801L1107.87 296.171L1107.22 296.557C1103.36 298.868 1098.96 301.323 1094.13 304.022L1094.12 304.027C1075.73 314.307 1051.03 328.114 1024.97 350.846C991.964 379.644 956.697 422.77 928.079 491.559C922.649 504.611 911.279 514.912 895.014 524.092C878.744 533.274 858.085 541.058 834.698 549.344C830.621 550.788 826.465 552.246 822.242 553.727C778.244 569.164 726.884 587.182 680.765 619.174C630.845 653.801 619.533 693.101 609.697 727.274L609.614 727.562C609.381 728.37 609.15 729.176 608.918 729.978C603.891 747.393 599.094 762.973 589.709 776.291C580.436 789.448 566.476 800.655 542.643 808.689C506.645 820.824 432.062 840.81 364.403 779.894C348.717 765.771 327.377 767.586 304.747 777.853C282.013 788.167 256.645 807.531 231.278 831.015C182.491 876.179 132.792 937.446 100.426 982.123L69.1959 889.483C101.243 844.723 152.375 781.174 202.341 734.919C227.501 711.627 252.119 692.954 273.679 683.173C295.341 673.345 312.602 673.005 324.673 683.874C395.803 747.915 474.348 726.601 510.825 714.305C536.042 705.804 551.495 693.663 561.876 678.932C572.145 664.362 577.244 647.512 582.233 630.229C582.481 629.371 582.728 628.511 582.977 627.648C592.739 593.742 603.382 556.779 650.952 523.781C696.133 492.441 746.486 474.767 790.596 459.285C794.789 457.813 798.925 456.361 802.995 454.919C826.326 446.654 847.614 438.665 864.573 429.093C881.537 419.519 894.678 408.085 901.094 392.664C929.242 325.006 963.782 282.894 995.86 254.909C1021.22 232.788 1044.98 219.496 1063.36 209.22Z" fill="url(#paint2_linear_117_81)" style=""/>
<defs>
<linearGradient id="paint0_linear_117_81" x1="-18.9835" y1="655.143" x2="1113.91" y2="232.407" gradientUnits="userSpaceOnUse">
<stop stop-color="white" stop-opacity="0" style="stop-color:none;stop-opacity:0;"/>
<stop offset="0.185635" stop-color="white" stop-opacity="0.0294118" style="stop-color:white;stop-opacity:0.0294118;"/>
<stop offset="0.255" stop-color="white" stop-opacity="0.15" style="stop-color:white;stop-opacity:0.15;"/>
<stop offset="0.302758" stop-color="white" stop-opacity="0.0295302" style="stop-color:white;stop-opacity:0.0295302;"/>
<stop offset="0.464276" stop-color="white" stop-opacity="0.02" style="stop-color:white;stop-opacity:0.02;"/>
<stop offset="0.495" stop-color="white" stop-opacity="0.08" style="stop-color:white;stop-opacity:0.08;"/>
<stop offset="0.645929" stop-color="white" stop-opacity="0.02" style="stop-color:white;stop-opacity:0.02;"/>
<stop offset="0.760426" stop-color="white" stop-opacity="0.02" style="stop-color:white;stop-opacity:0.02;"/>
<stop offset="0.814897" stop-color="white" stop-opacity="0.1" style="stop-color:white;stop-opacity:0.1;"/>
<stop offset="1" stop-color="white" stop-opacity="0" style="stop-color:none;stop-opacity:0;"/>
</linearGradient>
<linearGradient id="paint1_linear_117_81" x1="-18.9835" y1="655.143" x2="1113.91" y2="232.407" gradientUnits="userSpaceOnUse">
<stop stop-color="white" stop-opacity="0" style="stop-color:none;stop-opacity:0;"/>
<stop offset="0.185635" stop-color="white" stop-opacity="0.0294118" style="stop-color:white;stop-opacity:0.0294118;"/>
<stop offset="0.255" stop-color="white" stop-opacity="0.15" style="stop-color:white;stop-opacity:0.15;"/>
<stop offset="0.302758" stop-color="white" stop-opacity="0.0295302" style="stop-color:white;stop-opacity:0.0295302;"/>
<stop offset="0.464276" stop-color="white" stop-opacity="0.02" style="stop-color:white;stop-opacity:0.02;"/>
<stop offset="0.495" stop-color="white" stop-opacity="0.08" style="stop-color:white;stop-opacity:0.08;"/>
<stop offset="0.645929" stop-color="white" stop-opacity="0.02" style="stop-color:white;stop-opacity:0.02;"/>
<stop offset="0.760426" stop-color="white" stop-opacity="0.02" style="stop-color:white;stop-opacity:0.02;"/>
<stop offset="0.814897" stop-color="white" stop-opacity="0.1" style="stop-color:white;stop-opacity:0.1;"/>
<stop offset="1" stop-color="white" stop-opacity="0" style="stop-color:none;stop-opacity:0;"/>
</linearGradient>
<linearGradient id="paint2_linear_117_81" x1="-18.9835" y1="655.143" x2="1113.91" y2="232.407" gradientUnits="userSpaceOnUse">
<stop stop-color="white" stop-opacity="0" style="stop-color:none;stop-opacity:0;"/>
<stop offset="0.185635" stop-color="white" stop-opacity="0.0294118" style="stop-color:white;stop-opacity:0.0294118;"/>
<stop offset="0.255" stop-color="white" stop-opacity="0.15" style="stop-color:white;stop-opacity:0.15;"/>
<stop offset="0.302758" stop-color="white" stop-opacity="0.0295302" style="stop-color:white;stop-opacity:0.0295302;"/>
<stop offset="0.464276" stop-color="white" stop-opacity="0.02" style="stop-color:white;stop-opacity:0.02;"/>
<stop offset="0.495" stop-color="white" stop-opacity="0.08" style="stop-color:white;stop-opacity:0.08;"/>
<stop offset="0.645929" stop-color="white" stop-opacity="0.02" style="stop-color:white;stop-opacity:0.02;"/>
<stop offset="0.760426" stop-color="white" stop-opacity="0.02" style="stop-color:white;stop-opacity:0.02;"/>
<stop offset="0.814897" stop-color="white" stop-opacity="0.1" style="stop-color:white;stop-opacity:0.1;"/>
<stop offset="1" stop-color="white" stop-opacity="0" style="stop-color:none;stop-opacity:0;"/>
</linearGradient>
</defs>
</svg>
