<svg width="295" height="272" viewBox="0 0 295 272" fill="none" xmlns="http://www.w3.org/2000/svg">
<path d="M204.678 16.7134L160.584 64.2115L175.749 79.3152L194.158 59.4846V172.165L92.8873 68.2887C85.8031 61.0222 73.7715 66.22 73.7715 76.5467V246.713H94.81V100.929L196.081 204.805C203.165 212.071 215.197 206.874 215.197 196.547V59.4846L233.606 79.3152L248.771 64.2115L204.678 16.7134Z" fill="black"/>
<path d="M216.156 64.7134L216.156 224.713" stroke="#A0A0A0" stroke-width="2" stroke-linecap="round"/>
<path d="M95.1562 90.2134L95.1562 263.713" stroke="#A0A0A0" stroke-width="2" stroke-linecap="round"/>
<path d="M191.771 30.7134L154.983 71.0249" stroke="#A0A0A0" stroke-width="2" stroke-linecap="round"/>
<path d="M240.271 54.2134L191.772 3.39791" stroke="#A0A0A0" stroke-width="2" stroke-linecap="round"/>
<path d="M73.207 44.7134L73.207 237.713" stroke="#A0A0A0" stroke-width="2" stroke-linecap="round"/>
<path d="M194.156 50.7134L194.156 189.213" stroke="#A0A0A0" stroke-width="2" stroke-linecap="round"/>
<path d="M4.77148 11.2134L180.271 191.713" stroke="#DF9C49" stroke-width="4" stroke-linecap="round"/>
<path d="M109.771 83.7134L285.271 264.213" stroke="#17726E" stroke-width="4" stroke-linecap="round"/>
</svg>
